<svg xmlns="http://www.w3.org/2000/svg" width="17.5" height="14.66" version="1">
  <path fill-rule="evenodd" d="M11.28.15c1.74-.48 3.08.27 3.7 1.15.68-.22 1.36-.47 2.06-.7 0 .85-.54 1.5-.88 1.74.7.17 1.34-.48 1.34-.48-.17.98-1.03 1.75-1.6 1.98-.25 6.6-3.28 10.95-10.4 10.82h-.45c-.43 0-4.3-.45-5.05-1.84 2.34.2 4-.42 4.83-1.15-.98-.3-2.76-.47-3.06-2.88.36.1.58.2 1.22.1C1.75 8.07.37 7.37.45 5.22c.3.32 1.1.52 1.38.46C1.12 5.44-.2 2.4.92.84c1.87 1.8 3.85 3.52 7.37 3.7.2-2.25 1.16-3.75 2.98-4.4z" clip-rule="evenodd"/>
</svg>
