<svg xmlns="http://www.w3.org/2000/svg" width="26.94" height="34.09" version="1">
  <path d="M13.62.02L13.47 0 0 1.4v24.67l13.47 8.02 13.43-8 .04-.03V1.4L13.62.03zm11.4 12.1L13.5 5.33v-.1l-.1.06-.08-.06v.1l-11.4 6.8V3.15l11.55-1.2 11.55 1.2v8.98zM13.4 6.8l11.52 6.7-4.48 2.64-7.1-4.22v1.4l5.9 3.53-.86.5-5.03-3v1.43l3.8 2.27-.77.52-3.03-1.78v1.4l1.84 1.1-1.8 1.07-11.37-6.75L13.4 6.8zM1.93 15.12l11.4 6.8.02 1.03-7.94-4.73v1.42l7.97 4.8.02 1.07-7.98-4.74v1.42l8 4.82.05.02 8.14-4.87V17l3.42-2.04v10.02l-11.55 6.87-11.54-6.87v-9.85z"/>
</svg>
