<svg xmlns="http://www.w3.org/2000/svg" width="42.08" height="47.04">
  <path fill="#A4C639" d="M34.14 14H7.94v19.1c0 1.92 1.44 3.5 3.3 3.62v7.43c0 1.6 1.3 2.9 2.9 2.9 1.58 0 2.87-1.3 2.87-2.9v-7.42h8.07v7.42c0 1.6 1.3 2.9 2.9 2.9 1.58 0 2.87-1.3 2.87-2.9v-7.43c1.86-.14 3.32-1.7 3.32-3.63V14.33c0-.1 0-.22-.02-.33zM2.9 15.68c1.58 0 2.87 1.3 2.87 2.88v12.38c0 1.6-1.3 2.9-2.88 2.9-1.6 0-2.9-1.3-2.9-2.9V18.56c0-1.6 1.3-2.88 2.9-2.88zM39.2 15.68c1.6 0 2.88 1.3 2.88 2.88v12.38c0 1.6-1.3 2.9-2.88 2.9-1.6 0-2.9-1.3-2.9-2.9V18.56c0-1.6 1.3-2.88 2.9-2.88zM8.03 11.97h26.03c-.04-2.8-1.24-5.33-3.2-7.28L33.32.45c.1-.15.05-.33-.1-.42-.14-.08-.33-.03-.4.1L30.4 4.27C28.36 2.4 24.17.86 21.04.86c-3 0-7.32 1.55-9.37 3.4L9.3.16c-.1-.15-.27-.2-.42-.12-.14.08-.2.27-.1.42L11.2 4.7c-1.96 1.94-3.15 4.48-3.2 7.27zm17.3-5.17c0-.8.66-1.46 1.48-1.46.84 0 1.5.65 1.5 1.46 0 .8-.65 1.46-1.48 1.47-.82 0-1.5-.65-1.5-1.46zm-11.15 0c0-.8.67-1.46 1.5-1.46.8 0 1.48.65 1.5 1.46 0 .8-.68 1.46-1.5 1.47-.83 0-1.5-.65-1.5-1.46z"/>
</svg>
