<svg xmlns="http://www.w3.org/2000/svg" width="75" height="22" version="1">
  <path fill="rgba(255, 255, 255, 0.3)" d="M0 1.45C0 .75.58.15 1.26.15h7.18c5.08 0 8.43 2.72 8.43 7.16v.08c0 4.86-4.06 7.38-8.85 7.38H2.54v6.82c0 .7-.58 1.3-1.28 1.3-.68 0-1.26-.6-1.26-1.3V1.45zm8.1 10.98c3.75 0 6.2-2 6.2-4.96V7.4c0-3.22-2.42-4.9-6.06-4.9h-5.7v9.93H8.1zM21.73 1.3c0-.72.58-1.3 1.25-1.3.7 0 1.3.58 1.3 1.3v20.27c0 .7-.6 1.3-1.3 1.3-.67 0-1.25-.6-1.25-1.3V1.3zm9.14.02c0-.68.58-1.26 1.26-1.26h.35c.58 0 .93.3 1.3.74l13.67 17.45v-17C47.45.6 48 0 48.7 0c.68 0 1.23.58 1.23 1.26V21.6c0 .68-.48 1.2-1.16 1.2h-.13c-.54 0-.93-.33-1.32-.78L33.35 4.15V21.6c0 .68-.55 1.26-1.26 1.26-.7 0-1.24-.58-1.24-1.26V1.32zM56.3 1.3c0-.72.58-1.3 1.26-1.3.7 0 1.28.58 1.28 1.3v12.3L71.7.45c.28-.26.57-.45 1-.45.66 0 1.2.6 1.2 1.26 0 .35-.15.64-.4.9l-8 7.92 8.57 10.56c.23.3.36.54.36.93 0 .68-.58 1.3-1.3 1.3-.47 0-.8-.27-1.02-.6l-8.4-10.45-4.85 4.86v4.9c0 .7-.57 1.28-1.28 1.28-.68 0-1.26-.58-1.26-1.3V1.3z"/>
</svg>
