<svg xmlns="http://www.w3.org/2000/svg" width="146.3" height="40.38">
  <g fill="#D22856">
    <path d="M71.87 18.66c0-.7.58-1.3 1.26-1.3h7.18c5.1 0 8.45 2.72 8.45 7.16v.06c0 4.86-4.06 7.38-8.86 7.38H74.4v6.82c0 .7-.58 1.3-1.3 1.3-.67 0-1.25-.6-1.25-1.3V18.66zM80 29.64c3.72 0 6.17-2 6.17-4.96v-.06c0-3.22-2.4-4.9-6.05-4.9h-5.7v9.92H80zM93.6 18.5c0-.7.58-1.3 1.26-1.3.7 0 1.3.6 1.3 1.3v20.28c0 .7-.6 1.3-1.3 1.3-.68 0-1.26-.6-1.26-1.3V18.5zM102.74 18.53c0-.67.58-1.25 1.26-1.25h.35c.58 0 .94.3 1.3.74l13.68 17.45v-17c0-.68.54-1.26 1.25-1.26.68 0 1.23.6 1.23 1.27v20.35c0 .67-.47 1.2-1.15 1.2h-.13c-.55 0-.94-.33-1.32-.8l-13.97-17.85v17.45c0 .67-.55 1.25-1.26 1.25-.68 0-1.22-.58-1.22-1.25v-20.3zM128.17 18.5c0-.7.58-1.3 1.26-1.3.7 0 1.3.6 1.3 1.3v12.33l12.83-13.17c.3-.25.58-.45 1-.45.68 0 1.23.62 1.23 1.27 0 .35-.18.64-.43.9l-8 7.92 8.58 10.55c.22.3.35.55.35.94 0 .66-.58 1.27-1.28 1.27-.5 0-.8-.26-1.03-.58l-8.4-10.47-4.88 4.86v4.9c0 .7-.58 1.27-1.28 1.27-.68 0-1.26-.58-1.26-1.28V18.5z"/>
  </g>
  <path fill="#D22856" d="M98.5 9.88c-2 0-3.62-1.63-3.62-3.63 0 2-1.63 3.62-3.63 3.62 2 0 3.63 1.63 3.63 3.63 0-2 1.62-3.63 3.62-3.63z"/>
  <g fill="#D22856">
    <path d="M43.1 19.3c.24 0 .48.03.72.05-.43-.73-1.22-1.23-2.13-1.23-.9 0-1.63-.56-1.9-1.35-.72.2-1.42.48-2.1.82l.2.02c1.1 0 2 .9 2 2 0 .1 0 .2-.02.3 1-.4 2.08-.6 3.2-.6z"/>
    <path d="M60.46 28.02L55.3 6.65C54.92 4.3 52.7 0 46.7 0c-.84 0-1.5.67-1.5 1.5S45.85 3 46.7 3c4.84 0 5.56 3.73 5.63 4.14l4.76 19.7H55c-.44-3.55-2.45-6.62-5.3-8.52-.9.38-1.53 1.27-1.53 2.3 0 .1-.03.18-.04.26 2 1.36 3.42 3.5 3.83 5.97.07.48.13.98.13 1.5 0 .5-.06 1-.14 1.5-.73 4.27-4.43 7.53-8.9 7.53-4.48 0-8.2-3.26-8.9-7.53-.08-.5-.14-1-.14-1.5 0-.52.06-1.02.14-1.5.15-.88.43-1.72.8-2.5-1.03-.06-1.85-.92-1.85-1.97 0-.2-.07-.36-.2-.5-.93 1.48-1.56 3.16-1.78 4.97h-1.82c-.74-5.93-5.8-10.53-11.93-10.53S6.22 20.92 5.5 26.84H3.4L8.2 7.14c.05-.4.77-4.14 5.63-4.14.83 0 1.5-.67 1.5-1.5S14.65 0 13.83 0c-6 0-8.24 4.3-8.6 6.65L.05 28.02c-.26 1.1.53 1.82 1.43 1.82H5.5c.08.64.2 1.24.38 1.84.06-.1.1-.23.1-.36 0-1.1.9-2 2-2 .17 0 .33.03.48.07-.04-.36-.07-.7-.07-1.06 0-.5.04-1 .12-1.5.72-4.27 4.43-7.53 8.9-7.53s8.18 3.27 8.9 7.54c.08.5.13 1 .13 1.5s-.05 1.02-.13 1.5c-.72 4.28-4.42 7.53-8.9 7.53-2.02 0-3.88-.67-5.4-1.8-.34.3-.8.5-1.28.5-.42 0-.75.34-.75.75 0 .3-.08.56-.2.8 2.1 1.72 4.73 2.75 7.62 2.75 6.13 0 11.2-4.6 11.93-10.52h1.82c.74 5.92 5.8 10.52 11.92 10.52S54.27 35.77 55 29.85h4.02c.9 0 1.7-.73 1.42-1.83z"/>
  </g>
  <path fill="#283645" d="M50.7 16.13c-2.5 0-4.5-2.02-4.5-4.5 0 2.48-2.03 4.5-4.5 4.5 2.47 0 4.5 2 4.5 4.5 0-2.5 2-4.5 4.5-4.5zM37.9 19.63c-1.5 0-2.74-1.23-2.74-2.75 0 1.52-1.23 2.75-2.75 2.75 1.53 0 2.76 1.23 2.76 2.75 0-1.52 1.23-2.75 2.74-2.75zM10.73 34.07c-1.52 0-2.75-1.23-2.75-2.75 0 1.52-1.23 2.75-2.74 2.75 1.5 0 2.74 1.23 2.74 2.75 0-1.52 1.23-2.75 2.75-2.75z"/>
</svg>
