<svg xmlns="http://www.w3.org/2000/svg" width="146.3" height="40.38">
  <path fill="#283645" d="M71.87 18.66c0-.7.58-1.3 1.26-1.3h7.18c5.1 0 8.46 2.72 8.46 7.16v.06c0 4.86-4.06 7.38-8.86 7.38h-5.5v6.82c0 .7-.58 1.3-1.3 1.3-.67 0-1.25-.6-1.25-1.3V18.66zM80 29.64c3.72 0 6.17-2 6.17-4.96v-.06c0-3.22-2.4-4.9-6.05-4.9h-5.7v9.92H80zM93.6 18.5c0-.7.58-1.3 1.26-1.3.7 0 1.3.6 1.3 1.3v20.28c0 .7-.6 1.3-1.3 1.3-.68 0-1.26-.6-1.26-1.3V18.5zm9.14.03c0-.67.58-1.25 1.26-1.25h.35c.58 0 .94.3 1.3.74l13.68 17.45v-17c0-.68.54-1.26 1.25-1.26.68 0 1.23.6 1.23 1.28v20.35c0 .67-.46 1.2-1.14 1.2h-.13c-.55 0-.94-.33-1.32-.8l-13.96-17.85v17.45c0 .67-.55 1.25-1.26 1.25-.68 0-1.22-.58-1.22-1.25v-20.3zm25.43-.03c0-.7.58-1.3 1.26-1.3.7 0 1.3.6 1.3 1.3v12.33l12.83-13.16c.3-.26.58-.45 1-.45.68 0 1.23.6 1.23 1.26 0 .35-.2.64-.44.9l-8 7.92 8.58 10.56c.22.3.35.54.35.93 0 .66-.6 1.27-1.3 1.27-.5 0-.8-.26-1.02-.58l-8.4-10.47-4.88 4.86v4.9c0 .7-.58 1.27-1.28 1.27-.68 0-1.26-.58-1.26-1.3V18.5z"/>
  <path fill="#D22856" d="M60.46 28.02L55.3 6.65C54.92 4.3 52.7 0 46.7 0c-.84 0-1.5.67-1.5 1.5S45.85 3 46.7 3c4.84 0 5.56 3.73 5.63 4.14l4.76 19.7H55c-.74-5.92-5.8-10.53-11.93-10.53s-11.2 4.63-11.93 10.55h-1.82c-.74-5.92-5.8-10.53-11.93-10.53S6.2 20.92 5.5 26.85H3.4l4.8-19.7c.05-.4.77-4.15 5.63-4.15.83 0 1.5-.67 1.5-1.5S14.65 0 13.83 0c-6 0-8.24 4.3-8.6 6.65L.05 28.02c-.26 1.1.53 1.82 1.43 1.82H5.5c.74 5.93 5.8 10.54 11.92 10.54s11.2-4.6 11.93-10.53h1.8c.76 5.92 5.82 10.53 11.94 10.53s11.17-4.6 11.9-10.53h4.02c.9 0 1.7-.73 1.42-1.83zM26.3 29.84c-.7 4.28-4.4 7.54-8.88 7.54s-8.18-3.26-8.9-7.54c-.08-.48-.13-.98-.13-1.5s.03-1 .1-1.5c.73-4.27 4.43-7.53 8.9-7.53s8.2 3.28 8.9 7.55c.1.5.14 1 .14 1.5s-.05 1.02-.13 1.5zm25.7 0c-.73 4.28-4.43 7.54-8.9 7.54-4.48 0-8.2-3.26-8.9-7.54-.08-.48-.14-.98-.14-1.5s.06-1 .14-1.5c.7-4.27 4.42-7.53 8.9-7.53 4.47 0 8.17 3.28 8.9 7.55.07.5.13 1 .13 1.5s-.06 1.02-.14 1.5z"/>
</svg>
