<svg xmlns="http://www.w3.org/2000/svg" viewBox="0 0 17.99 13.97"><defs><style>.cls-1{fill:#d22856;}</style></defs><title>Asset 1</title><g id="Layer_2" data-name="Layer 2"><g id="Layer_1-2" data-name="Layer 1"><path class="cls-1" d="M14.91,1.81c1.2-1,.9-1.81-.66-1.81H3.73C2.17,0,1.88.82,3.07,1.81L6.82,4.93a3.54,3.54,0,0,0,4.35,0Z"/><path class="cls-1" d="M11.91,7,9.7,8.88h0A1,1,0,0,1,9.44,9l-.1,0A1.13,1.13,0,0,1,9,9.14H9a1.2,1.2,0,0,1-.33-.06l-.1,0a1.05,1.05,0,0,1-.23-.14h0L6.08,7,2.18,3.8C1,2.8,0,3.26,0,4.82v6.32A2.84,2.84,0,0,0,2.83,14H15.15A2.84,2.84,0,0,0,18,11.13V4.82c0-1.56-1-2-2.18-1Z"/></g></g></svg>
