<svg xmlns="http://www.w3.org/2000/svg" width="298" height="345.1">
  <path fill="#dedede" d="M264.57 102.06l5.35-5.36c7.72-7.72 9.13-18.94 3.13-24.93-6-6-17.22-4.6-24.94 3.12l-5.37 5.38c-20.96-17-46.62-28.4-74.73-31.98v-9.6h7.66c10.9 0 19.84-8.7 19.84-19.34S186.57 0 175.66 0h-53.32c-10.9 0-19.84 8.7-19.84 19.36s8.93 19.35 19.84 19.35H130v9.6C56.68 57.63 0 120.24 0 196.1c0 82.3 66.7 149 149 149s149-66.7 149-149c0-35.67-12.54-68.4-33.43-94.04zM149 306.25c-60.84 0-110.17-49.32-110.17-110.16S88.16 85.93 149 85.93s110.17 49.32 110.17 110.17S209.84 306.26 149 306.26z"/>
</svg>
