<svg xmlns="http://www.w3.org/2000/svg" width="12.54" height="11.99" version="1" viewBox="521.94 473.06 12.54 11.99">
  <path d="M528.17 485.06c-.2 0-.4-.1-.55-.25-3.8-4.32-4.64-5.3-4.86-5.57-.53-.67-.82-1.5-.82-2.37 0-2.1 1.7-3.8 3.8-3.8.93 0 1.8.32 2.48.9.7-.58 1.56-.9 2.46-.9 2.1 0 3.8 1.7 3.8 3.8 0 .9-.3 1.75-.9 2.38l-4.85 5.56c-.14.16-.34.25-.56.25zm-4.24-6.7l4.24 4.85 4.33-4.94c.34-.37.52-.86.52-1.4 0-1.28-1.05-2.33-2.33-2.33-.74 0-1.44.35-1.92.95-.14.17-.35.26-.58.27-.23 0-.44-.1-.58-.3-.44-.58-1.12-.92-1.88-.92-1.3 0-2.33 1.05-2.33 2.33 0 .68.28 1.17.5 1.47.02 0 .02 0 .03.02z"/>
</svg>
