<svg xmlns="http://www.w3.org/2000/svg" width="49.95" height="24.01" version="1">
  <path fill="#FFF" d="M1.14 0C.5 0 0 .43 0 1v2c0 .55.5 1 1.14 1H48.8c.64 0 1.15-.43 1.15-1V1c0-.55-.5-1-1.14-1H1.15zm0 10C.5 10 0 10.43 0 11v2c0 .55.5 1 1.14 1H48.8c.64 0 1.15-.42 1.15-1v-2c0-.55-.5-1-1.14-1H1.15zm0 10C.5 20 0 20.43 0 21.02V23c0 .55.5 1 1.14 1H48.8c.64 0 1.15-.42 1.15-1v-1.98c0-.56-.5-1.02-1.14-1.02H1.15z"/>
  <path fill="#FFF" d="M1.14 0C.5 0 0 .43 0 1v2c0 .55.5 1 1.14 1H48.8c.64 0 1.15-.43 1.15-1V1c0-.55-.5-1-1.14-1H1.15zm0 10C.5 10 0 10.43 0 11v2c0 .55.5 1 1.14 1H48.8c.64 0 1.15-.42 1.15-1v-2c0-.55-.5-1-1.14-1H1.15zm0 10C.5 20 0 20.43 0 21.02V23c0 .55.5 1 1.14 1H48.8c.64 0 1.15-.42 1.15-1v-1.98c0-.56-.5-1.02-1.14-1.02H1.15z"/>
</svg>
