<svg xmlns="http://www.w3.org/2000/svg" viewBox="0 0 19.7 19.7"><defs><style>.cls-1{fill:#d22856;}</style></defs><title>Asset 2</title><g id="Layer_2" data-name="Layer 2"><g id="Layer_1-2" data-name="Layer 1"><path class="cls-1" d="M9.85,0c-3.51,0-7,.63-8.3,1.88A6.89,6.89,0,0,0,0,5.91S0,6,0,6.08a.82.82,0,0,0,.82.82L4,6.64l.09,0a.82.82,0,0,0,.8-.82V4.19a.9.9,0,0,1,.91-.9h8a.9.9,0,0,1,.91.9V5.8a.82.82,0,0,0,.8.82l.08,0,3.22.26a.82.82,0,0,0,.82-.82,1.63,1.63,0,0,0,0-.17,6.9,6.9,0,0,0-1.53-4C16.87.63,13.36,0,9.85,0Zm0,10.67a1.64,1.64,0,1,0,1.64,1.64A1.64,1.64,0,0,0,9.85,10.67ZM8.62,7V6a1,1,0,1,0-2,0V7L1,12.89a2.06,2.06,0,0,0-.62,1.47V16a1.64,1.64,0,0,0,1.64,1.64h.41v1a1,1,0,1,0,2.05,0v-1H15.18v1a1,1,0,0,0,2.05,0v-1h.41A1.64,1.64,0,0,0,19.28,16V14.36a2.05,2.05,0,0,0-.62-1.47L13.13,7V6a1,1,0,1,0-2.05,0V7ZM9.85,9a3.28,3.28,0,1,1-3.28,3.28A3.28,3.28,0,0,1,9.85,9Z"/></g></g></svg>
