<svg xmlns="http://www.w3.org/2000/svg" viewBox="0 0 512 512"><path class="st0" d="M394.1 138.5c0 15.7-10.5 30.7-26.2 30.7v21.6h-248V167c-15.7 0-28.5-12.7-28.5-28.5 0-13.1 8.8-24.1 20.8-27.4-.9-2.8-1.5-5.9-1.5-9 0-15.7 12.7-28.5 28.5-28.5h.8c-.5-2.2-.8-4.5-.8-6.9 0-15.7 12.7-28.5 28.5-28.5 10.1 0 19 5.3 24.1 13.3 4.9-4 11.2-6.5 18-6.5 5.6 0 10.8 1.6 15.2 4.4 2.2-13.5 13.9-23.7 28.1-23.7 15.2 0 27.6 11.9 28.4 26.8 3.8-1.9 8-2.9 12.6-2.9 12.2 0 22.6 7.7 26.7 18.5 5.2-5.8 12.7-9.4 21.1-9.4 15.7 0 28.5 12.7 28.5 28.5 0 10.2-5.4 19.2-13.5 24.2 2.8-.9 5.8-1.4 8.9-1.4 15.6.1 28.3 12.8 28.3 28.5z"/><path class="st1" d="M156.5 190.8v-4.7c-15.7 0-28.5-12.7-28.5-28.5 0-9.8 5-18.5 12.6-23.6 4.1-2.8 6.7-7.3 6.7-12.3v-.5c0-15.7 12.7-28.5 28.5-28.5.3 0-.2-6.8.2-10.4 1.7-13.5 13-24 26.6-24.8 8-.4 15.3 2.4 20.7 7.3 3.2 2.9 7.7 3.5 11.7 1.8 3.5-1.5 7.3-2.3 11.3-2.3 1.9 0 3.7.2 5.4.5 5.3 1 10.7-1.5 13.4-6.1 2.5-4.1 5.9-7.5 10-9.9 3.1-1.8 4.1-5.8 2.3-8.9-4.9-8.5-14.1-14.1-24.6-14.1-14.1 0-25.8 10.3-28.1 23.7-4.4-2.8-9.6-4.4-15.2-4.4-6.9 0-13.1 2.4-18 6.5-5.3-8.4-14.9-13.8-25.7-13.2-13.6.8-24.9 11.3-26.6 24.8-.5 3.7-.2 7.2.6 10.4h-.8c-15.7 0-28.5 12.7-28.5 28.5 0 3.2.5 6.2 1.5 9-12 3.3-20.8 14.3-20.8 27.4 0 15.7 12.7 28.5 28.5 28.5v23.9l36.8-.1z"/><path d="M404.4 193.2v14.7l-3.7 37.9L388.4 374l-.2.3-8.8 90.9c-1 11.5-10.7 20.3-22.2 20.3H144.8c-11.5 0-21.2-8.8-22.2-20.3l-9-90.8-12.7-128.2-3.8-38.4v-14.7c0-13.9 10.8-25.7 24.7-26.2 14.6-.5 26.5 11.1 26.5 25.6 0-14.1 11.5-25.6 25.6-25.6s25.6 11.5 25.6 25.6c0-14.1 11.5-25.6 25.6-25.6s25.6 11.5 25.6 25.6c0-14.1 11.5-25.6 25.6-25.6s25.6 11.5 25.6 25.6c0-14.1 11.5-25.6 25.6-25.6 14.1 0 25.6 11.5 25.6 25.6 0-14.5 12-26.1 26.5-25.6 14 .6 24.8 12.4 24.8 26.3z" fill="#ddd"/><path d="M268.5 427.4c-11.5 0-21.2-8.8-22.2-20.3l-9-90.8-12.7-128.2-2.1-21.1c-12.9 1.3-23 12.2-23 25.5 0-14.1-11.5-25.6-25.6-25.6s-25.6 11.5-25.6 25.6c0-14.5-12-26.1-26.5-25.6-13.9.5-24.7 12.3-24.7 26.2v14.7l3.8 38.4 12.7 128.2 9 90.8c1 11.5 10.7 20.3 22.2 20.3h212.5c11.6 0 21.2-8.8 22.2-20.3l3.7-37.8H268.5z" fill="#ddd"/><path class="st4" d="M357.3 485.6c11.6 0 21.2-8.8 22.2-20.3l8.8-90.9.2-.3 12.3-128.2 3.7-37.9v-14.7c0-13.9-10.8-25.7-24.7-26.2-14.6-.5-26.5 11.1-26.5 25.6 0-1.8-19.3 293-19.3 293l23.3-.1z"/><path class="st5" d="M383.1 427.4h-45.4c-2.2 34.2-3.8 58.2-3.8 58.2h23.4c3.6 0 7-.9 10.1-2.4 2.4-1.2 4.6-2.9 6.4-4.9 3.2-3.5 5.3-8 5.7-13l3.6-37.9zm-217.8 58.2h43.3s-9.1-295-9.1-293c0-14.1-11.5-25.6-25.6-25.6s-25.6 11.5-25.6 25.6c0-1.7 17 293 17 293z"/><path class="st4" d="M285 486.2h-34.8s.6-295 .6-293c0-14.1 11.5-25.6 25.6-25.6 14.1 0 25.6 11.5 25.6 25.6 0-1.7-17 293-17 293z"/><path class="st5" d="M250.3 417.9c-.1 36.3-.1 63.5-.1 67.7H285c.2-3.8 1.5-26.7 3.4-58.2h-19.8c-7.6 0-14.2-3.7-18.3-9.5z"/><path d="M443.1 262.8v95c0 8.3-6.7 15.1-15.1 15.1H266.1c-.4 0-.8-.2-.9-.6l-6.7-20.3c-2.5-7.5-13-7.5-15.5 0l-6.7 20.3c-.2.3-.6.6-.9.6H73.5c-8.3 0-15.1-6.7-15.1-15.1v-95c0-8.3 6.7-15.1 15.1-15.1h160.7c1.9 0 3.7.8 5 2.1l4.6 4.6c3.8 3.9 10.1 3.9 13.9 0l4.6-4.6c1.3-1.3 3.1-2.1 5-2.1H428c8.3.1 15.1 6.8 15.1 15.1z" fill="#ddd"/><path d="M250.8 262.8c0-2 .4-3.9 1.1-5.6-2.9.3-5.8-.6-8-2.8l-4.6-4.6c-1.3-1.3-3.1-2.1-5-2.1H73.5c-8.3 0-15.1 6.7-15.1 15.1v95c0 8.3 6.7 15.1 15.1 15.1h161.9c.4 0 .8-.2.9-.6L243 352c1.2-3.7 4.5-5.6 7.7-5.6l.1-83.6z" fill="#ddd"/><path d="M220 283.7V337c0 5.4-4.4 9.8-9.8 9.8H99c-5.4 0-9.8-4.4-9.8-9.8v-53.2c0-5.4 4.4-9.8 9.8-9.8h111.3c5.3-.1 9.7 4.3 9.7 9.7z" fill="#fff"/><path class="st4" d="M412.4 283.7V337c0 5.4-4.4 9.8-9.8 9.8H291.3c-5.4 0-9.8-4.4-9.8-9.8v-53.2c0-5.4 4.4-9.8 9.8-9.8h111.3c5.4-.1 9.8 4.3 9.8 9.7z"/><path d="M210.2 273.9H99c-5.4 0-9.8 4.4-9.8 9.8v5.7h59c31.6 0 57.3 25.7 57.3 57.3h4.7c5.4 0 9.8-4.4 9.8-9.8v-53.2c0-5.4-4.4-9.8-9.8-9.8z" fill="#fff"/><path class="st5" d="M402.6 273.9H291.3c-5.4 0-9.8 4.4-9.8 9.8v5.7h59c31.6 0 57.3 25.7 57.3 57.3h4.7c5.4 0 9.8-4.4 9.8-9.8v-53.2c.1-5.4-4.3-9.8-9.7-9.8z"/><path class="st1" d="M279.2 138h-.2c-2.6-.1-5-1.5-6.4-3.7-.5-.8-1-1.5-1.6-2.2-1.5-1.8-2-4.2-1.6-6.5.5-2.3 2-4.2 4-5.3 5.4-2.8 9.3-7.7 10.7-13.5.6-2.4 2.3-4.4 4.7-5.4 2.3-.9 5-.7 7.1.7 3.4 2.2 7.3 3.4 11.4 3.4 1.9 0 3.7-.3 5.5-.7 2.8-.8 5.8.1 7.8 2.3 2 2.2 2.5 5.2 1.5 8-.7 1.8-1.1 3.6-1.3 5.5-.2 2.4-1.6 4.6-3.6 5.9-2.1 1.3-4.6 1.5-6.9.6-2.4-.9-5-1.4-7.5-1.4-6.9 0-13.3 3.4-17.1 9.1-1.6 1.9-4 3.2-6.5 3.2zM190 125.9c-.8 0-1.7-.1-2.5-.4-2.4-.8-5-1.2-7.5-1.1-2.5.1-4.9-1-6.4-3s-2-4.5-1.3-6.9c.6-1.9.8-3.9.8-5.8 0-1.7-.2-3.4-.6-5-.6-2.3 0-4.8 1.5-6.7 1.5-1.9 3.8-2.9 6.2-2.9h.6c4.9 0 9.4-1.6 13.1-4.7 1.7-1.4 4-2 6.1-1.7 2.2.4 4.1 1.6 5.3 3.5.2.3.3.5.5.8 2.2 3.2 1.7 7.6-1.2 10.2-4.4 3.9-7 9.6-7 15.5v.3c0 2.5-1.2 4.9-3.2 6.4-1.1 1-2.7 1.5-4.4 1.5z"/><path class="st0" d="M488.1 426.4c13.2 0 23.9 10.7 23.9 23.9s-10.7 23.9-23.9 23.9c-2.9 0-5.8-.6-8.4-1.5-4 7.7-12 12.9-21.2 12.9-13.2 0-23.9-10.7-23.9-23.9 0-4.8 1.4-9.2 3.8-12.9-.2-1.4-.4-2.7-.4-4.2 0-13.2 10.7-23.9 23.9-23.9 6.8 0 12.9 2.9 17.3 7.4 2.8-1.1 5.8-1.7 8.9-1.7z"/><path class="st1" d="M465.7 462.3c0-4.8 1.4-9.2 3.8-12.9-.2-1.4-.4-2.7-.4-4.2 0-7.4 3.4-14.1 8.7-18.4-4.2-3.8-9.8-6.1-15.9-6.1-13.2 0-23.9 10.7-23.9 23.9 0 1.4.1 2.8.4 4.2-2.4 3.7-3.8 8.1-3.8 12.9 0 13.2 10.7 23.9 23.9 23.9 5.8 0 11-2 15.2-5.4-4.9-4.4-8-10.8-8-17.9z"/><path class="st0" d="M396.5 444.7c9.3 9.3 9.3 24.5 0 33.8s-24.5 9.3-33.8 0c-2.1-2.1-3.7-4.5-4.8-7-8.2 2.6-17.6.7-24.1-5.9-9.3-9.3-9.3-24.5 0-33.8 3.4-3.4 7.5-5.5 11.8-6.4.8-1.1 1.7-2.2 2.7-3.2 9.3-9.3 24.5-9.3 33.8 0 4.8 4.8 7.1 11.2 7 17.5 2.7 1.1 5.2 2.8 7.4 5z"/><path class="st1" d="M362.8 450.4c3.4-3.4 7.5-5.5 11.8-6.4.8-1.1 1.7-2.2 2.7-3.2 3.2-3.2 7.2-5.3 11.3-6.3-.9-4.5-3-8.7-6.5-12.2-9.3-9.3-24.5-9.3-33.8 0-1 1-1.9 2.1-2.7 3.2-4.3 1-8.5 3.1-11.8 6.4-9.3 9.3-9.3 24.5 0 33.8 6.1 6.1 14.6 8.2 22.5 6.3-1.6-7.6.6-15.8 6.5-21.6z"/><path class="st0" d="M77.4 444.6c0 4.8-1.4 9.2-3.8 12.9.2 1.4.4 2.7.4 4.2 0 13.2-10.7 23.9-23.9 23.9-6.8 0-12.9-2.9-17.3-7.4-2.8 1.1-5.8 1.7-8.9 1.7C10.7 479.9 0 469.2 0 456s10.7-23.9 23.9-23.9c2.9 0 5.8.6 8.4 1.5 4-7.7 12-12.9 21.2-12.9 13.2 0 23.9 10.7 23.9 23.9z"/><path class="st1" d="M30.7 471.6c0-13.2 10.7-23.9 23.9-23.9 2.9 0 5.8.6 8.4 1.5 2.8-5.4 7.6-9.6 13.3-11.6-3-9.8-12.1-16.9-22.9-16.9-9.2 0-17.2 5.2-21.2 12.9-2.6-1-5.4-1.5-8.4-1.5C10.7 432.1 0 442.8 0 456s10.7 23.9 23.9 23.9c2.8 0 5.4-.5 7.9-1.3-.7-2.2-1.1-4.6-1.1-7z"/><path d="M214.6 269.4l-61.1 32.2-58.6-30.8-7 13.3 49.4 25.9-48.6 25.6 6.9 13.3 57.9-30.4 60.4 31.8 7-13.3-51.3-27 52-27.3zm199.1 14l-6.9-13.3-61.2 32.2-58.5-30.8-7 13.3 49.4 25.9-48.7 25.6 7 13.3 57.8-30.4L406 351l7-13.3-51.3-27z"/></svg>