<?xml version="1.0" encoding="utf-8"?>
<!-- Generator: Adobe Illustrator 20.1.0, SVG Export Plug-In . SVG Version: 6.00 Build 0)  -->
<svg version="1.1" id="Capa_1" xmlns="http://www.w3.org/2000/svg" xmlns:xlink="http://www.w3.org/1999/xlink" x="0px" y="0px"
	 viewBox="0 0 512 512" style="enable-background:new 0 0 512 512;" xml:space="preserve">
<style type="text/css">
	.st0{fill:#FDDB87;}
	.st1{fill:#EFBA5B;}
	.st2{fill:#DDDBC7;}
	.st3{fill:#CEC9A7;}
	.st4{fill:#ED3124;}
	.st5{fill:#E00E0E;}
	.st6{fill:#DDDDDD;}
	.st7{fill:#CCCBC6;}
	.st8{fill:#128CA0;}
	.st9{fill:#00818E;}
</style>
<path class="st0" d="M394.1,138.5c0,15.7-10.5,30.7-26.2,30.7v21.6H119.9V167c-15.7,0-28.5-12.7-28.5-28.5
	c0-13.1,8.8-24.1,20.8-27.4c-0.9-2.8-1.5-5.9-1.5-9c0-15.7,12.7-28.5,28.5-28.5c0.3,0,0.6,0,0.8,0c-0.5-2.2-0.8-4.5-0.8-6.9
	c0-15.7,12.7-28.5,28.5-28.5c10.1,0,19,5.3,24.1,13.3c4.9-4,11.2-6.5,18-6.5c5.6,0,10.8,1.6,15.2,4.4c2.2-13.5,13.9-23.7,28.1-23.7
	c15.2,0,27.6,11.9,28.4,26.8c3.8-1.9,8-2.9,12.6-2.9c12.2,0,22.6,7.7,26.7,18.5c5.2-5.8,12.7-9.4,21.1-9.4
	c15.7,0,28.5,12.7,28.5,28.5c0,10.2-5.4,19.2-13.5,24.2c2.8-0.9,5.8-1.4,8.9-1.4C381.4,110.1,394.1,122.8,394.1,138.5z"/>
<path class="st1" d="M156.5,190.8v-4.7c-15.7,0-28.5-12.7-28.5-28.5c0-9.8,5-18.5,12.6-23.6c4.1-2.8,6.7-7.3,6.7-12.3l0-0.5
	c0-15.7,12.7-28.5,28.5-28.5c0.3,0-0.2-6.8,0.2-10.4c1.7-13.5,13-24,26.6-24.8c8-0.4,15.3,2.4,20.7,7.3c3.2,2.9,7.7,3.5,11.7,1.8
	c3.5-1.5,7.3-2.3,11.3-2.3c1.9,0,3.7,0.2,5.4,0.5c5.3,1,10.7-1.5,13.4-6.1c2.5-4.1,5.9-7.5,10-9.9c3.1-1.8,4.1-5.8,2.3-8.9
	c-4.9-8.5-14.1-14.1-24.6-14.1c-14.1,0-25.8,10.3-28.1,23.7c-4.4-2.8-9.6-4.4-15.2-4.4c-6.9,0-13.1,2.4-18,6.5
	c-5.3-8.4-14.9-13.8-25.7-13.2c-13.6,0.8-24.9,11.3-26.6,24.8c-0.5,3.7-0.2,7.2,0.6,10.4c-0.3,0-0.5,0-0.8,0
	c-15.7,0-28.5,12.7-28.5,28.5c0,3.2,0.5,6.2,1.5,9c-12,3.3-20.8,14.3-20.8,27.4c0,15.7,12.7,28.5,28.5,28.5v23.9L156.5,190.8
	L156.5,190.8L156.5,190.8z"/>
<path class="st2" d="M404.4,193.2v14.7l-3.7,37.9l-12.3,128.2l-0.2,0.3l-8.8,90.9c-1,11.5-10.7,20.3-22.2,20.3H144.8
	c-11.5,0-21.2-8.8-22.2-20.3l-9-90.8l-12.7-128.2l-3.8-38.4v-14.7c0-13.9,10.8-25.7,24.7-26.2c14.6-0.5,26.5,11.1,26.5,25.6
	c0-14.1,11.5-25.6,25.6-25.6s25.6,11.5,25.6,25.6c0-14.1,11.5-25.6,25.6-25.6s25.6,11.5,25.6,25.6c0-14.1,11.5-25.6,25.6-25.6
	s25.6,11.5,25.6,25.6c0-14.1,11.5-25.6,25.6-25.6c14.1,0,25.6,11.5,25.6,25.6c0-14.5,12-26.1,26.5-25.6
	C393.6,167.5,404.4,179.3,404.4,193.2z"/>
<path class="st3" d="M268.5,427.4c-11.5,0-21.2-8.8-22.2-20.3l-9-90.8l-12.7-128.2l-2.1-21.1c-12.9,1.3-23,12.2-23,25.5
	c0-14.1-11.5-25.6-25.6-25.6s-25.6,11.5-25.6,25.6c0-14.5-12-26.1-26.5-25.6c-13.9,0.5-24.7,12.3-24.7,26.2v14.7l3.8,38.4
	l12.7,128.2l9,90.8c1,11.5,10.7,20.3,22.2,20.3h212.5c11.6,0,21.2-8.8,22.2-20.3l3.7-37.8H268.5L268.5,427.4z"/>
<path class="st4" d="M357.3,485.6c11.6,0,21.2-8.8,22.2-20.3l8.8-90.9l0.2-0.3l12.3-128.2l3.7-37.9v-14.7
	c0-13.9-10.8-25.7-24.7-26.2c-14.6-0.5-26.5,11.1-26.5,25.6c0-1.8-19.3,293-19.3,293L357.3,485.6L357.3,485.6z"/>
<g>
	<path class="st5" d="M383.1,427.4h-45.4c-2.2,34.2-3.8,58.2-3.8,58.2h23.4c3.6,0,7-0.9,10.1-2.4c2.4-1.2,4.6-2.9,6.4-4.9
		c3.2-3.5,5.3-8,5.7-13L383.1,427.4z"/>
	<path class="st5" d="M165.3,485.6h43.3c0,0-9.1-295-9.1-293c0-14.1-11.5-25.6-25.6-25.6s-25.6,11.5-25.6,25.6
		C148.3,190.9,165.3,485.6,165.3,485.6z"/>
</g>
<path class="st4" d="M285,486.2h-34.8c0,0,0.6-295,0.6-293c0-14.1,11.5-25.6,25.6-25.6c14.1,0,25.6,11.5,25.6,25.6
	C302,191.5,285,486.2,285,486.2z"/>
<path class="st5" d="M250.3,417.9c-0.1,36.3-0.1,63.5-0.1,67.7H285c0.2-3.8,1.5-26.7,3.4-58.2h-19.8
	C261,427.4,254.4,423.7,250.3,417.9z"/>
<path class="st6" d="M443.1,262.8v95c0,8.3-6.7,15.1-15.1,15.1H266.1c-0.4,0-0.8-0.2-0.9-0.6l-6.7-20.3c-2.5-7.5-13-7.5-15.5,0
	l-6.7,20.3c-0.2,0.3-0.6,0.6-0.9,0.6H73.5c-8.3,0-15.1-6.7-15.1-15.1v-95c0-8.3,6.7-15.1,15.1-15.1h160.7c1.9,0,3.7,0.8,5,2.1
	l4.6,4.6c3.8,3.9,10.1,3.9,13.9,0l4.6-4.6c1.3-1.3,3.1-2.1,5-2.1H428C436.3,247.8,443.1,254.5,443.1,262.8z"/>
<path class="st7" d="M250.8,262.8c0-2,0.4-3.9,1.1-5.6c-2.9,0.3-5.8-0.6-8-2.8l-4.6-4.6c-1.3-1.3-3.1-2.1-5-2.1H73.5
	c-8.3,0-15.1,6.7-15.1,15.1v95c0,8.3,6.7,15.1,15.1,15.1h161.9c0.4,0,0.8-0.2,0.9-0.6l6.7-20.3c1.2-3.7,4.5-5.6,7.7-5.6L250.8,262.8
	L250.8,262.8z"/>
<path class="st8" d="M220,283.7V337c0,5.4-4.4,9.8-9.8,9.8H99c-5.4,0-9.8-4.4-9.8-9.8v-53.2c0-5.4,4.4-9.8,9.8-9.8h111.3
	C215.6,273.9,220,278.3,220,283.7z"/>
<path class="st4" d="M412.4,283.7V337c0,5.4-4.4,9.8-9.8,9.8H291.3c-5.4,0-9.8-4.4-9.8-9.8v-53.2c0-5.4,4.4-9.8,9.8-9.8h111.3
	C408,273.9,412.4,278.3,412.4,283.7z"/>
<path class="st9" d="M210.2,273.9H99c-5.4,0-9.8,4.4-9.8,9.8v5.7h59c31.6,0,57.3,25.7,57.3,57.3l0,0h4.7c5.4,0,9.8-4.4,9.8-9.8
	v-53.2C220,278.3,215.6,273.9,210.2,273.9z"/>
<path class="st5" d="M402.6,273.9H291.3c-5.4,0-9.8,4.4-9.8,9.8v5.7h59c31.6,0,57.3,25.7,57.3,57.3l0,0h4.7c5.4,0,9.8-4.4,9.8-9.8
	v-53.2C412.4,278.3,408,273.9,402.6,273.9z"/>
<path class="st1" d="M279.2,138c-0.1,0-0.1,0-0.2,0c-2.6-0.1-5-1.5-6.4-3.7c-0.5-0.8-1-1.5-1.6-2.2c-1.5-1.8-2-4.2-1.6-6.5
	c0.5-2.3,2-4.2,4-5.3c5.4-2.8,9.3-7.7,10.7-13.5c0.6-2.4,2.3-4.4,4.7-5.4c2.3-0.9,5-0.7,7.1,0.7c3.4,2.2,7.3,3.4,11.4,3.4
	c1.9,0,3.7-0.3,5.5-0.7c2.8-0.8,5.8,0.1,7.8,2.3c2,2.2,2.5,5.2,1.5,8c-0.7,1.8-1.1,3.6-1.3,5.5c-0.2,2.4-1.6,4.6-3.6,5.9
	c-2.1,1.3-4.6,1.5-6.9,0.6c-2.4-0.9-5-1.4-7.5-1.4c-6.9,0-13.3,3.4-17.1,9.1C284.1,136.7,281.7,138,279.2,138z M190,125.9
	c-0.8,0-1.7-0.1-2.5-0.4c-2.4-0.8-5-1.2-7.5-1.1c-2.5,0.1-4.9-1-6.4-3c-1.5-2-2-4.5-1.3-6.9c0.6-1.9,0.8-3.9,0.8-5.8
	c0-1.7-0.2-3.4-0.6-5c-0.6-2.3,0-4.8,1.5-6.7c1.5-1.9,3.8-2.9,6.2-2.9l0.3,0c0.1,0,0.2,0,0.3,0c4.9,0,9.4-1.6,13.1-4.7
	c1.7-1.4,4-2,6.1-1.7c2.2,0.4,4.1,1.6,5.3,3.5c0.2,0.3,0.3,0.5,0.5,0.8c2.2,3.2,1.7,7.6-1.2,10.2c-4.4,3.9-7,9.6-7,15.5l0,0.3
	c0,2.5-1.2,4.9-3.2,6.4C193.3,125.4,191.7,125.9,190,125.9z"/>
<path class="st0" d="M488.1,426.4c13.2,0,23.9,10.7,23.9,23.9c0,13.2-10.7,23.9-23.9,23.9c-2.9,0-5.8-0.6-8.4-1.5
	c-4,7.7-12,12.9-21.2,12.9c-13.2,0-23.9-10.7-23.9-23.9c0-4.8,1.4-9.2,3.8-12.9c-0.2-1.4-0.4-2.7-0.4-4.2
	c0-13.2,10.7-23.9,23.9-23.9c6.8,0,12.9,2.9,17.3,7.4C482,427,485,426.4,488.1,426.4z"/>
<path class="st1" d="M465.7,462.3c0-4.8,1.4-9.2,3.8-12.9c-0.2-1.4-0.4-2.7-0.4-4.2c0-7.4,3.4-14.1,8.7-18.4
	c-4.2-3.8-9.8-6.1-15.9-6.1c-13.2,0-23.9,10.7-23.9,23.9c0,1.4,0.1,2.8,0.4,4.2c-2.4,3.7-3.8,8.1-3.8,12.9
	c0,13.2,10.7,23.9,23.9,23.9c5.8,0,11-2,15.2-5.4C468.8,475.8,465.7,469.4,465.7,462.3z"/>
<path class="st0" d="M396.5,444.7c9.3,9.3,9.3,24.5,0,33.8s-24.5,9.3-33.8,0c-2.1-2.1-3.7-4.5-4.8-7c-8.2,2.6-17.6,0.7-24.1-5.9
	c-9.3-9.3-9.3-24.5,0-33.8c3.4-3.4,7.5-5.5,11.8-6.4c0.8-1.1,1.7-2.2,2.7-3.2c9.3-9.3,24.5-9.3,33.8,0c4.8,4.8,7.1,11.2,7,17.5
	C391.8,440.8,394.3,442.5,396.5,444.7z"/>
<path class="st1" d="M362.8,450.4c3.4-3.4,7.5-5.5,11.8-6.4c0.8-1.1,1.7-2.2,2.7-3.2c3.2-3.2,7.2-5.3,11.3-6.3
	c-0.9-4.5-3-8.7-6.5-12.2c-9.3-9.3-24.5-9.3-33.8,0c-1,1-1.9,2.1-2.7,3.2c-4.3,1-8.5,3.1-11.8,6.4c-9.3,9.3-9.3,24.5,0,33.8
	c6.1,6.1,14.6,8.2,22.5,6.3C354.7,464.4,356.9,456.2,362.8,450.4z"/>
<path class="st0" d="M77.4,444.6c0,4.8-1.4,9.2-3.8,12.9c0.2,1.4,0.4,2.7,0.4,4.2c0,13.2-10.7,23.9-23.9,23.9
	c-6.8,0-12.9-2.9-17.3-7.4c-2.8,1.1-5.8,1.7-8.9,1.7C10.7,479.9,0,469.2,0,456s10.7-23.9,23.9-23.9c2.9,0,5.8,0.6,8.4,1.5
	c4-7.7,12-12.9,21.2-12.9C66.7,420.7,77.4,431.4,77.4,444.6z"/>
<path class="st1" d="M30.7,471.6c0-13.2,10.7-23.9,23.9-23.9c2.9,0,5.8,0.6,8.4,1.5c2.8-5.4,7.6-9.6,13.3-11.6
	c-3-9.8-12.1-16.9-22.9-16.9c-9.2,0-17.2,5.2-21.2,12.9c-2.6-1-5.4-1.5-8.4-1.5C10.7,432.1,0,442.8,0,456s10.7,23.9,23.9,23.9
	c2.8,0,5.4-0.5,7.9-1.3C31.1,476.4,30.7,474,30.7,471.6z"/>
<polygon points="214.6,269.4 153.5,301.6 94.9,270.8 87.9,284.1 137.3,310 88.7,335.6 95.6,348.9 153.5,318.5 213.9,350.3 
	220.9,337 169.6,310 221.6,282.7 "/>
<polygon points="413.7,283.4 406.8,270.1 345.6,302.3 287.1,271.5 280.1,284.8 329.5,310.7 280.8,336.3 287.8,349.6 345.6,319.2 
	406,351 413,337.7 361.7,310.7 "/>
</svg>
