<svg xmlns="http://www.w3.org/2000/svg" width="75" height="72">
  <g fill="#81B3D2">
    <path d="M29.66 65.03h16V41.2h-16v23.83zm2.93-20.9H42.7V62.1H32.6V44.14z"/>
    <path d="M72.77 39.25l2.08-2.06-9.9-9.88V0H51.12v13.57L37.5 0 .15 37.2l2.08 2.05 7.83-7.8V69.1H6.12V72H70v-2.92h-5.06V31.46l7.83 7.8zM62 69.08H13V28.53L37.5 4.15 62 28.53v40.55zm0-44.7l-7.94-7.9V2.93H62V24.4z"/>
    <path d="M29.9 27.08c0 4.26 3.48 7.7 7.76 7.7 4.28 0 7.75-3.44 7.75-7.7s-3.46-7.7-7.74-7.7-7.75 3.44-7.75 7.7zm7.76-4.94c2.74 0 4.97 2.2 4.97 4.94 0 2.73-2.23 4.95-4.97 4.95-2.75 0-4.97-2.22-4.97-4.95s2.2-4.94 4.96-4.94zM17.06 41.2h3v3.93h-3zM23 41.2h3v3.93h-3zM17.06 47.18h3v3.92h-3zM23 47.18h3v3.92h-3zM49 41.2h3v3.93h-3zM54.94 41.2h3v3.93h-3zM49 47.18h3v3.92h-3zM54.94 47.18h3v3.92h-3z"/>
  </g>
</svg>
