<svg xmlns="http://www.w3.org/2000/svg" width="74" height="70">
  <g fill="#81B3D2">
    <path d="M69.85 46.7H4.05c-2.27 0-4.13 1.95-4.13 4.32v3.5c0 2.38 1.86 4.32 4.13 4.32h.93v1.05c0 5.53 4.34 10.06 9.65 10.06h44.64c5.3 0 9.65-4.53 9.65-10.07v-1.06h.93c2.28 0 4.14-1.94 4.14-4.3V51c0-2.37-1.87-4.3-4.15-4.3zM66 59.9c0 3.86-3 7-6.72 7H14.63c-3.7 0-6.73-3.14-6.73-7v-1.06H66v1.05zm5.07-5.37c0 .68-.56 1.27-1.22 1.27H4.05c-.66 0-1.22-.58-1.22-1.27v-3.5c0-.7.56-1.28 1.22-1.28h65.8c.66 0 1.22.58 1.22 1.27v3.5zM15.63 38.4l5.33 4.07 5.32-4.06 5.33 4.07 5.34-4.06 5.33 4.07 5.33-4.06 5.32 4.07 5.33-4.06 5.34 4.06 6.18-4.7-1.72-2.47-4.47 3.4-5.35-4.06-5.33 4.06-5.32-4.06-5.33 4.06-5.33-4.06-5.33 4.06-5.32-4.06-5.32 4.06-5.33-4.06-5.32 4.06-4.46-3.4-1.72 2.45 6.2 4.72M7.98 31.54H68.85c.05-.6.07-1.24.07-1.87 0-.4 0-.78-.03-1.17C68.22 12.66 54.2 0 36.94 0 19.72 0 5.68 12.66 5 28.5L5 29.67c0 .63.03 1.25.07 1.87h2.93zm28.97-28.5c15.6 0 28.35 11.32 29.02 25.46H7.93C8.6 14.36 21.36 3.04 36.95 3.04z"/>
    <ellipse cx="36.95" cy="15.26" rx="1.95" ry="2.03"/>
    <ellipse cx="29.17" cy="10.23" rx="1.95" ry="2.03"/>
    <ellipse cx="44.73" cy="10.23" rx="1.95" ry="2.03"/>
  </g>
</svg>
