<svg xmlns="http://www.w3.org/2000/svg" width="64" height="76">
  <path fill="#81B3D2" fill-rule="evenodd" d="M61.1 22.5H36.3c13.83-6.9 14.93-11.25 14.42-13.68-1.16-3.97-5.7-7.03-10-5.4-5.57 2.08-7.14 10.38-8.65 16.38-1.92-6.07-3.78-13.82-8.13-17.74C22.68.92 20.84-.2 18.17.03 14.15.4 8.37 5.4 10.72 11c2.25 5.4 9.68 8.8 14.57 11.5H2.87C1.3 22.5 0 23.8 0 25.37V36.7c0 1.57 1.3 2.86 2.88 2.86h.27V76H61V39.56h.1c1.58 0 2.88-1.3 2.88-2.87V25.36c0-1.58-1.3-2.87-2.88-2.87zM42.4 5.94c2.12-.3 5 1.3 5.27 3.2.4 2.77-3.4 5.27-5.1 6.43-2.5 1.75-4.92 2.65-7.27 4.06.88-3.7 2.54-13 7.1-13.7zM19.54 15.9C17.3 14.44 13 11.5 13.1 8.15c.1-3.6 5.73-6.57 8.8-3.88 3.86 3.37 5.72 11.1 7.12 16.55-3.25-1.53-6.32-2.78-9.5-4.9zm5.97 57.13H6.14V39.56H25.5v33.47zm0-36.5H3.05v-11H25.5v11zm10.16 0v36.5H28.5V25.54h7.16v10.98zM58 73.02H38.65V39.56H58v33.47zm2.93-36.5h-22.3v-11h22.3v11z" clip-rule="evenodd"/>
</svg>
