<svg xmlns="http://www.w3.org/2000/svg" width="21" height="22">
  <path d="M19.25 2.02H16.4V.65c0-.38-.3-.7-.65-.7-.36 0-.66.32-.66.7v1.38h-3.94V.65c0-.38-.3-.7-.66-.7-.36 0-.66.32-.66.7v1.38H5.9V.65c0-.38-.3-.7-.65-.7-.36 0-.66.32-.66.7v1.38H1.74C.78 2.03 0 2.85 0 3.86v16.3C0 21.18.78 22 1.75 22h17.5c.97 0 1.75-.82 1.75-1.84V3.86c0-1-.78-1.83-1.75-1.83zm.44 18.14a.45.45 0 0 1-.45.46H1.75a.45.45 0 0 1-.44-.46V3.86a.45.45 0 0 1 .45-.46H4.6v1.38c0 .38.3.7.65.7.36 0 .66-.32.66-.7V3.4h3.94v1.38c0 .38.3.7.66.7.36 0 .66-.32.66-.7V3.4h3.93v1.38c0 .38.3.7.65.7.36 0 .66-.32.66-.7V3.4h2.85c.24 0 .44.2.44.46v16.3z"/>
  <path d="M4.6 8.22H7.2v2.07H4.6zm0 3.45H7.2v2.06H4.6zm0 3.44H7.2v2.08H4.6zm4.6 0h2.6v2.08H9.2zm0-3.43h2.6v2.06H9.2zm0-3.45h2.6v2.07H9.2zm4.58 6.9h2.63v2.06H13.8zm0-3.45h2.63v2.06H13.8zm0-3.45h2.63v2.07H13.8z"/>
</svg>