<svg xmlns="http://www.w3.org/2000/svg" data-name="Layer 1" viewBox="0 0 113 39">
  <path fill="#fff" d="M46.84 28.22a2.07 2.07 0 0 0 .58-.1v1.4a3.4 3.4 0 0 1-1.24.2 1.75 1.75 0 0 1-1.75-1 5.08 5.08 0 0 1-3.3 1.14c-1.6 0-3.06-.87-3.06-2.68 0-2.24 2.08-2.93 3.9-2.93a11.63 11.63 0 0 1 2.28.26v-.3c0-1.1-.8-1.86-2.3-1.86a7.8 7.8 0 0 0-3.15.67v-1.78a10.72 10.72 0 0 1 3.35-.58c2.48 0 4 1.18 4 3.83v3.14a.57.57 0 0 0 .7.62zm-6.76-1.2a1.42 1.42 0 0 0 1.64 1.3 3.56 3.56 0 0 0 2.53-1v-1.5a10.2 10.2 0 0 0-1.9-.23c-1.1 0-2.27.34-2.27 1.44zM53.06 20.62a5.3 5.3 0 0 1 2.7.67v1.78a4.28 4.28 0 0 0-2.42-.73 2.9 2.9 0 1 0 0 5.76 5.26 5.26 0 0 0 2.55-.66v1.8a6.58 6.58 0 0 1-2.9.6 4.42 4.42 0 0 1-4.73-4.54 4.54 4.54 0 0 1 4.8-4.68zM65.84 28.22a2.07 2.07 0 0 0 .58-.1v1.4a3.4 3.4 0 0 1-1.24.2 1.75 1.75 0 0 1-1.75-1 5.08 5.08 0 0 1-3.3 1.14c-1.6 0-3.06-.87-3.06-2.68 0-2.24 2.08-2.93 3.9-2.93a11.63 11.63 0 0 1 2.28.26v-.3c0-1.1-.8-1.86-2.3-1.86a7.8 7.8 0 0 0-3.15.67v-1.78a10.72 10.72 0 0 1 3.35-.58c2.48 0 4 1.18 4 3.83v3.14a.57.57 0 0 0 .7.62zm-6.76-1.2a1.42 1.42 0 0 0 1.64 1.3 3.56 3.56 0 0 0 2.53-1v-1.5a10.2 10.2 0 0 0-1.9-.23c-1.1 0-2.27.34-2.27 1.44zM76.67 16.85V29.6H74.9v-1.38a4.07 4.07 0 0 1-3.34 1.62 4.62 4.62 0 0 1 0-9.22A4 4 0 0 1 74.7 22v-5.15h2zm-4.76 5.48a2.9 2.9 0 0 0 0 5.8 3 3 0 0 0 2.8-1.84v-2.14a3.06 3.06 0 0 0-2.8-1.83zM83 20.62c3.47 0 4.67 2.8 4.1 5.34h-6.57c.22 1.57 1.75 2.22 3.35 2.22a6.4 6.4 0 0 0 2.77-.62v1.68a7.5 7.5 0 0 1-3.14.6c-2.67 0-5-1.53-5-4.6A4.4 4.4 0 0 1 83 20.6zm.08 1.62a2.4 2.4 0 0 0-2.57 2.26h4.86a2.06 2.06 0 0 0-2.28-2.26zM89.1 29.6v-8.74h1.73v1.1a4 4 0 0 1 2.92-1.34 3 3 0 0 1 2.73 1.4 4.33 4.33 0 0 1 3.06-1.4 3.2 3.2 0 0 1 3.32 3.52v5.47h-2v-5.4a1.67 1.67 0 0 0-1.73-1.84 2.94 2.94 0 0 0-2.17 1.18V29.6h-2v-5.4a1.67 1.67 0 0 0-1.73-1.84 3.1 3.1 0 0 0-2.32 1.35v5.92h-2zM111.47 20.86h2l-4.1 9.93c-.95 2.27-2.2 3-3.52 3a5 5 0 0 1-1.15-.16v-1.66a3 3 0 0 0 .9.13c.94 0 1.65-.66 2.16-2l.18-.43-4.16-8.82h2.13l3 6.6zM40.66 1.53v5a4 4 0 0 1 2.83-1.2 3.4 3.4 0 0 1 3.6 3.57v5.4h-2V9.16a1.9 1.9 0 0 0-2-2.1 3.08 3.08 0 0 0-2.44 1.46v5.8h-2V1.54h2zM52.43 2.42v3.12h3.17v1.7h-3.17v4c0 1.16.53 1.54 1.66 1.54a4.7 4.7 0 0 0 1.76-.35v1.68a7.14 7.14 0 0 1-2.35.4 2.68 2.68 0 0 1-3-2.9V7.24h-1.6v-1.7h1.58V2.87zM58.1 14.3V5.53h1.73v1.1a4 4 0 0 1 2.92-1.34 3 3 0 0 1 2.73 1.4 4.33 4.33 0 0 1 3.06-1.4 3.2 3.2 0 0 1 3.32 3.52v5.47h-2V8.87a1.67 1.67 0 0 0-1.73-1.84 2.94 2.94 0 0 0-2.17 1.18V14.3h-2V8.87a1.67 1.67 0 0 0-1.73-1.84A3.1 3.1 0 0 0 59.9 8.4v5.9h-2zM74.72 1.52h1.95v12.76h-1.95zM15.44.02h-.16L0 1.62v28l15.28 9.1 15.28-9.1v-28zm13.12 28.45l-13.28 7.9L2 28.47V17l13.22 7.86v1.43l-9.07-5.4v1.37l9.1 5.47v1.46l-9.1-5.42v1.38l9.12 5.47 9.2-5.5v-5.9l4.1-2.46v11.67zm0-13.16l-3.65 2.15-1.67 1-8-4.76v1.37l6.84 4.07H22l-.14.1-1 .56-5.64-3.36v1.38l4.45 2.65-1.05.7-3.36-2v1.38l2.2 1.3-2.24 1.35-13.16-7.82 13.17-7.92zm0-1.38L15.2 6.05 2 13.9V3.4l13.3-1.38 13.27 1.4v10.5z"/>
</svg>